# xmcd
#
# Track frame offsets:
# 150
# 17720
# 29135
# 39885
# 56920
# 76505
# 96970
# 111712
# 121412
# 134220
# 148335
# 161945
# 176530
# 191212
# 202725
# 214282
# 236605
#
# Disc length: 3448 seconds
#
#
# Revision: 0
# Processed by: cddbd v1.5.1PL2 Copyright (c) Steve Scherf et al.
# Submitted via: FreeRIP 2.945 
#
DISCID=070d7611
DTITLE=Gleydson Rodrigues - Jaguariuna Rodeio Inernacional 2006 - Jaguariuna Rodeio Inernacional 2006
DYEAR=2006
DGENRE=Country
TTITLE0=Tiozinho -Gleidson Rodrigues - Iza  Mariana
TTITLE1=Vai começas tudo de novo - Betto and Mennon
TTITLE2=Have You Ever Seen The Rain? - Vanderley Andrade
TTITLE3=Adrenalina - Juliano Cesar
TTITLE4=Ui Ai Ai - Gleydson Rodrigues
TTITLE5=Rodeio e Show (resposta do cowboy viado) - Geidson Rodrigues e Jorge moises
TTITLE6=Cheiro de Cerveja - Dois a um
TTITLE7=Cotton Fields - Cheyenne
TTITLE8=Macaxeira - Banda Vendaval
TTITLE9=Coração de bico pra cima - Ney e Nando
TTITLE10=Grito da moçada - Gleydson Rodrigues
TTITLE11=Emboladeira - As leoas
TTITLE12=Sexta feira ja chegou - Rony e Mota
TTITLE13=Espinho na cama - Chico Rey e Parana
TTITLE14=Virou mania- Guto e Nando
TTITLE15=Chorei Chorei - Trio Bmw
TTITLE16=Desatino - Rafael e Adriel
EXTD=Jaguariuna  \n11 A 21 MAIO DE 2006\nemerson@betim.mg.gov.br
EXTT0=
EXTT1=
EXTT2=
EXTT3=
EXTT4=
EXTT5=
EXTT6=
EXTT7=
EXTT8=
EXTT9=
EXTT10=
EXTT11=
EXTT12=
EXTT13=
EXTT14=
EXTT15=
EXTT16=
PLAYORDER=
